<svg width="29" height="29" fill="none" xmlns="http://www.w3.org/2000/svg"><g opacity=".95" filter="url('#filter0_d_12_149')"><path d="M21.585.864H8.225c-1.833 0-3.32 1.525-3.32 3.405v13.19c0 1.88 1.487 3.405 3.32 3.405h13.36c1.834 0 3.32-1.525 3.32-3.406V4.27c0-1.88-1.486-3.405-3.32-3.405Z" fill="#470137"/><path d="m15.42 6.124-2.496 4.224 2.67 4.486a.144.144 0 0 1 .013.103c-.004.015-.013.019-.027.02h-.015l-.018-.001c-.01 0-.022 0-.034.002H13.55c-.104-.003-.178-.018-.224-.096-.178-.356-.357-.712-.537-1.067-.16-.316-.325-.63-.495-.943l-.075-.137a63 63 0 0 1-.597-1.115h-.013c-.18.37-.366.737-.557 1.101a254.3 254.3 0 0 0-.57 1.094c-.188.363-.38.723-.577 1.08-.032.073-.084.089-.157.091H7.87l-.026.003c-.015.001-.024-.002-.026-.025a.141.141 0 0 1 .02-.096l2.59-4.362L7.905 6.11c-.027-.037-.031-.066-.014-.09a.098.098 0 0 1 .08-.034h1.893a.274.274 0 0 1 .12.02c.032.02.06.045.08.076.162.367.34.734.538 1.101.195.365.394.727.597 1.087.2.355.385.718.556 1.087h.014c.175-.37.357-.736.543-1.1.183-.358.371-.718.564-1.08.19-.358.375-.718.556-1.08a.213.213 0 0 1 .054-.09.192.192 0 0 1 .107-.02h1.758a.075.075 0 0 1 .049.003.08.08 0 0 1 .026.127l-.008.007Zm3.942 9.012h-.092a4.07 4.07 0 0 1-1.791-.384 2.875 2.875 0 0 1-1.255-1.163c-.296-.505-.448-1.133-.456-1.886v-.061a3.666 3.666 0 0 1 .456-1.803 3.39 3.39 0 0 1 1.282-1.295l.046-.026c.582-.33 1.284-.495 2.107-.495h.036l.04.001.047.002.051.004.086.006.098.008.071.006V5.34c0-.065.027-.097.08-.097h1.691a.07.07 0 0 1 .06.02.074.074 0 0 1 .02.062v8.133c0 .137.006.284.016.441l.025.357.013.207a.145.145 0 0 1-.08.137 6.53 6.53 0 0 1-1.355.413 7.09 7.09 0 0 1-1.196.123Zm.726-1.705V9.674a1.301 1.301 0 0 0-.221-.041 2.61 2.61 0 0 0-.275-.014 2.03 2.03 0 0 0-.94.22 1.85 1.85 0 0 0-.704.633c-.177.266-.269.613-.275 1.04v.047c-.006.3.041.599.14.88.082.228.21.435.377.606.159.158.352.276.563.344.223.074.456.112.691.11a4.1 4.1 0 0 0 .349-.013c.085-.007.17-.022.254-.044l.041-.011Z" fill="#FF61F6"/></g><defs><filter id="filter0_d_12_149" x=".905" y=".864" width="28" height="28" filterUnits="userSpaceOnUse" color-interpolation-filters="sRGB"><feFlood flood-opacity="0" result="BackgroundImageFix"/><feColorMatrix in="SourceAlpha" values="0 0 0 0 0 0 0 0 0 0 0 0 0 0 0 0 0 0 127 0" result="hardAlpha"/><feOffset dy="4"/><feGaussianBlur stdDeviation="2"/><feComposite in2="hardAlpha" operator="out"/><feColorMatrix values="0 0 0 0 0 0 0 0 0 0 0 0 0 0 0 0 0 0 0.25 0"/><feBlend in2="BackgroundImageFix" result="effect1_dropShadow_12_149"/><feBlend in="SourceGraphic" in2="effect1_dropShadow_12_149" result="shape"/></filter></defs></svg>