<svg width="29" height="29" fill="none" xmlns="http://www.w3.org/2000/svg"><g opacity=".95" filter="url('#filter0_d_12_152')"><path d="M21.615.864H8.255c-1.834 0-3.32 1.525-3.32 3.405v13.19c0 1.88 1.486 3.405 3.32 3.405h13.36c1.833 0 3.32-1.525 3.32-3.406V4.27c0-1.88-1.487-3.405-3.32-3.405Z" fill="#001E36"/><path d="M9.438 14.89V6.095c0-.064.027-.096.08-.096h.086l.145-.002.202-.004.675-.015.725-.014c.255-.004.508-.007.758-.007.68 0 1.252.088 1.717.262.42.145.803.385 1.12.702.27.274.479.605.611.97.126.355.19.73.188 1.108 0 .734-.165 1.339-.496 1.816a2.816 2.816 0 0 1-1.297 1.022l-.045.017c-.545.208-1.148.284-1.81.288h-.255l-.077-.001-.086-.002-.052-.002-.031-.002-.077-.003-.095-.002-.142-.001h-.031v2.745a.114.114 0 0 1-.03.093.106.106 0 0 1-.091.031H9.532c-.062 0-.094-.036-.094-.11Zm1.813-7.239v2.868c.107.009.214.013.321.014h.443c.305-.001.609-.048.901-.139l.059-.018c.265-.081.503-.239.684-.454.168-.204.255-.484.261-.841v-.04a1.42 1.42 0 0 0-.194-.757 1.259 1.259 0 0 0-.584-.489 2.432 2.432 0 0 0-.98-.171h-.277l-.102.002-.145.003-.105.003-.055.002-.073.004-.062.004-.036.003-.03.003-.014.001-.012.002Zm9.682 2.346a3.087 3.087 0 0 0-.74-.275l-.059-.013a4.139 4.139 0 0 0-.86-.11h-.072c-.17-.005-.34.016-.503.061a.451.451 0 0 0-.262.172.441.441 0 0 0-.067.234.37.37 0 0 0 .08.22.918.918 0 0 0 .253.212l.03.016c.19.105.388.2.59.282.45.154.88.364 1.28.626.274.176.5.42.658.708.134.273.2.576.195.881.008.403-.104.8-.322 1.135a2.128 2.128 0 0 1-.933.764c-.393.177-.877.269-1.45.275h-.059a5.324 5.324 0 0 1-1.059-.095l-.075-.015a3.552 3.552 0 0 1-.852-.275.181.181 0 0 1-.094-.151v-1.5a.083.083 0 0 1 .034-.076.064.064 0 0 1 .074.007c.32.194.67.336 1.033.42.32.082.649.126.98.13.312 0 .543-.041.69-.124a.382.382 0 0 0 .163-.145.396.396 0 0 0 .059-.212c0-.12-.067-.234-.202-.344a1.419 1.419 0 0 0-.242-.151l-.05-.025-.053-.026-.029-.013-.058-.027-.031-.014-.064-.027-.034-.014-.069-.029-.036-.014-.074-.03-.078-.03a4.885 4.885 0 0 1-1.188-.619 2.084 2.084 0 0 1-.63-.722 1.939 1.939 0 0 1-.195-.874c0-.364.097-.721.282-1.032.211-.342.514-.615.872-.784.394-.202.886-.303 1.476-.303.346-.003.691.022 1.033.076.248.032.49.099.72.2.036.01.066.038.08.075.009.033.013.068.013.103v1.39a.093.093 0 0 1-.04.082.127.127 0 0 1-.115 0Z" fill="#31A8FF"/></g><defs><filter id="filter0_d_12_152" x=".935" y=".864" width="28" height="28" filterUnits="userSpaceOnUse" color-interpolation-filters="sRGB"><feFlood flood-opacity="0" result="BackgroundImageFix"/><feColorMatrix in="SourceAlpha" values="0 0 0 0 0 0 0 0 0 0 0 0 0 0 0 0 0 0 127 0" result="hardAlpha"/><feOffset dy="4"/><feGaussianBlur stdDeviation="2"/><feComposite in2="hardAlpha" operator="out"/><feColorMatrix values="0 0 0 0 0 0 0 0 0 0 0 0 0 0 0 0 0 0 0.25 0"/><feBlend in2="BackgroundImageFix" result="effect1_dropShadow_12_152"/><feBlend in="SourceGraphic" in2="effect1_dropShadow_12_152" result="shape"/></filter></defs></svg>