<svg width="29" height="28" fill="none" xmlns="http://www.w3.org/2000/svg"><g opacity=".95" filter="url('#filter0_d_12_151')"><path d="M21.555 0H8.196c-1.834 0-3.32 1.525-3.32 3.405v13.19c0 1.88 1.486 3.405 3.32 3.405h13.36c1.833 0 3.32-1.525 3.32-3.405V3.405c0-1.88-1.487-3.405-3.32-3.405Z" fill="#300"/><path d="M14.568 12.002h-3.1l-.63 2.01a.162.162 0 0 1-.06.091.155.155 0 0 1-.101.032h-1.57c-.09 0-.12-.05-.094-.151l2.683-7.926c.027-.083.054-.177.08-.282.036-.184.054-.37.055-.558a.086.086 0 0 1 .055-.092.081.081 0 0 1 .038-.004h2.134c.062 0 .098.023.107.069l3.046 8.807c.026.091 0 .138-.08.137h-1.745a.122.122 0 0 1-.085-.022.127.127 0 0 1-.05-.074l-.683-2.037ZM11.95 10.27h2.12l-.03-.103-.049-.162-.034-.113-.056-.18-.117-.377L13.682 9l-.268-.871c-.067-.217-.131-.434-.193-.652l-.049-.177-.057-.21-.088-.324-.016-.061h-.013c-.067.33-.15.657-.245.98l-.2.656-.109.363-.11.367-.06.197-.06.192-.059.188-.058.183-.059.178-.058.174-.029.086Zm7.07-3.688a.951.951 0 0 1-.737-.303 1.095 1.095 0 0 1-.282-.784 1.032 1.032 0 0 1 .302-.764c.192-.19.449-.296.716-.296h.028c.323 0 .575.099.759.296a1.068 1.068 0 0 1 .275.764 1.1 1.1 0 0 1-.289.784 1.027 1.027 0 0 1-.743.304l-.028-.001Zm-.925 7.417V7.42c0-.082.035-.124.107-.124h1.65c.072 0 .108.042.108.124v6.578c0 .091-.036.138-.107.137h-1.637c-.077 0-.117-.04-.12-.123l-.001-.014Z" fill="#FF9A00"/></g><defs><filter id="filter0_d_12_151" x=".876" y="0" width="28" height="28" filterUnits="userSpaceOnUse" color-interpolation-filters="sRGB"><feFlood flood-opacity="0" result="BackgroundImageFix"/><feColorMatrix in="SourceAlpha" values="0 0 0 0 0 0 0 0 0 0 0 0 0 0 0 0 0 0 127 0" result="hardAlpha"/><feOffset dy="4"/><feGaussianBlur stdDeviation="2"/><feComposite in2="hardAlpha" operator="out"/><feColorMatrix values="0 0 0 0 0 0 0 0 0 0 0 0 0 0 0 0 0 0 0.25 0"/><feBlend in2="BackgroundImageFix" result="effect1_dropShadow_12_151"/><feBlend in="SourceGraphic" in2="effect1_dropShadow_12_151" result="shape"/></filter></defs></svg>