<svg width="29" height="29" fill="none" xmlns="http://www.w3.org/2000/svg"><g opacity=".95" filter="url('#filter0_d_12_126')"><path d="M20.188.864H9.563A4.688 4.688 0 0 0 4.876 5.55v10.625a4.688 4.688 0 0 0 4.687 4.688h10.625a4.687 4.687 0 0 0 4.688-4.688V5.551A4.687 4.687 0 0 0 20.188.864Z" fill="#F4F2ED"/><mask id="mask0_12_126" style="mask-type:luminance" maskUnits="userSpaceOnUse" x="9" y="3" width="12" height="16"><path d="M9.641 3.051h10.42v15.625H9.64V3.051Z" fill="#fff"/></mask><g mask="url('#mask0_12_126')"><path d="M12.247 18.676a2.605 2.605 0 0 0 2.604-2.604v-2.604h-2.604a2.605 2.605 0 0 0 0 5.208Z" fill="#0ACF83"/><path d="M9.642 10.864a2.605 2.605 0 0 1 2.605-2.604h2.604v5.208h-2.604a2.605 2.605 0 0 1-2.605-2.604Z" fill="#A259FF"/><path d="M9.643 5.656a2.605 2.605 0 0 1 2.604-2.605h2.604V8.26h-2.604a2.605 2.605 0 0 1-2.604-2.604Z" fill="#F24E1E"/><path d="M14.85 3.051h2.605a2.605 2.605 0 0 1 0 5.209H14.85V3.05Z" fill="#FF7262"/><path d="M20.06 10.864a2.605 2.605 0 0 1-5.21 0 2.605 2.605 0 0 1 5.21 0Z" fill="#1ABCFE"/></g></g><defs><filter id="filter0_d_12_126" x=".876" y=".864" width="28" height="28" filterUnits="userSpaceOnUse" color-interpolation-filters="sRGB"><feFlood flood-opacity="0" result="BackgroundImageFix"/><feColorMatrix in="SourceAlpha" values="0 0 0 0 0 0 0 0 0 0 0 0 0 0 0 0 0 0 127 0" result="hardAlpha"/><feOffset dy="4"/><feGaussianBlur stdDeviation="2"/><feComposite in2="hardAlpha" operator="out"/><feColorMatrix values="0 0 0 0 0 0 0 0 0 0 0 0 0 0 0 0 0 0 0.25 0"/><feBlend in2="BackgroundImageFix" result="effect1_dropShadow_12_126"/><feBlend in="SourceGraphic" in2="effect1_dropShadow_12_126" result="shape"/></filter></defs></svg>