<svg width="29" height="28" fill="none" xmlns="http://www.w3.org/2000/svg"><g opacity=".95" filter="url('#filter0_d_12_153')"><path d="M8.477 0h12.916c1.959 0 3.542 1.624 3.542 3.632v12.735c0 2.009-1.583 3.633-3.542 3.633H8.477c-1.959 0-3.542-1.624-3.542-3.633V3.633C4.935 1.624 6.518 0 8.477 0Z" fill="#00005B"/><path d="M9.685 14.026V5.23c0-.06.025-.094.083-.094h.121l.094-.001.066-.002.07-.001.076-.003.04-.002.229-.007.239-.005.082-.002.083-.003c.075-.003.152-.005.23-.006l.242-.005.168-.003.085-.003c.172-.006.341-.008.508-.008h.25c.684 0 1.25.085 1.717.264.419.146.8.386 1.117.701.268.277.476.609.608.975.125.359.192.726.192 1.11 0 .736-.167 1.343-.5 1.821-.333.479-.8.838-1.342 1.043-.548.207-1.15.285-1.807.29H12.005l-.059-.002-.035-.002-.031-.002-.028-.002a1.219 1.219 0 0 0-.055-.004l-.04-.002-.045-.001-.074-.001h-.145v2.743a.106.106 0 0 1-.091.12H9.785c-.067 0-.1-.034-.1-.111Zm1.817-7.24v2.872l.098.007c.075.006.15.01.227.01h.441c.325 0 .65-.051.959-.154.266-.077.5-.239.683-.453.175-.213.258-.504.258-.88a1.436 1.436 0 0 0-.191-.76 1.22 1.22 0 0 0-.554-.476l-.03-.012a2.39 2.39 0 0 0-.983-.17H12.127l-.087.001-.082.002-.115.005a2.81 2.81 0 0 0-.053-.002l-.05-.002h-.068l-.04.002h-.019l-.034.002-.03.003-.013.001-.024.003-.01.001Zm5.65.496h1.458c.079 0 .143.053.17.124l.005.013a.884.884 0 0 1 .05.213c.017.086.033.18.042.265l.007.083c.005.07.01.146.01.225.238-.286.524-.526.845-.709l.046-.026a2.532 2.532 0 0 1 1.267-.333c.058-.009.108.034.116.094v1.7c0 .069-.041.095-.133.095a3.574 3.574 0 0 0-.841.072l-.06.013a3.37 3.37 0 0 0-.7.23c-.157.078-.307.18-.424.317v4.36c0 .085-.033.119-.108.119H17.26a.116.116 0 0 1-.133-.103V9.265c0-.205 0-.419-.009-.641l-.005-.167-.006-.333a13.2 13.2 0 0 0-.005-.167c0-.196-.017-.384-.034-.58-.008-.044.017-.086.059-.095 0-.007.012-.008.02-.003l.005.003Z" fill="#99F"/></g><defs><filter id="filter0_d_12_153" x=".935" y="0" width="28" height="28" filterUnits="userSpaceOnUse" color-interpolation-filters="sRGB"><feFlood flood-opacity="0" result="BackgroundImageFix"/><feColorMatrix in="SourceAlpha" values="0 0 0 0 0 0 0 0 0 0 0 0 0 0 0 0 0 0 127 0" result="hardAlpha"/><feOffset dy="4"/><feGaussianBlur stdDeviation="2"/><feComposite in2="hardAlpha" operator="out"/><feColorMatrix values="0 0 0 0 0 0 0 0 0 0 0 0 0 0 0 0 0 0 0.25 0"/><feBlend in2="BackgroundImageFix" result="effect1_dropShadow_12_153"/><feBlend in="SourceGraphic" in2="effect1_dropShadow_12_153" result="shape"/></filter></defs></svg>