<svg width="33" height="33" fill="none" xmlns="http://www.w3.org/2000/svg"><g opacity=".76" filter="url('#filter0_d_23_996')"><path d="M20.917.902 7.367 4.533c-1.86.498-2.953 2.449-2.442 4.356L8.51 22.266c.51 1.907 2.433 3.05 4.293 2.551l13.55-3.63c1.859-.498 2.952-2.449 2.441-4.356L25.21 3.454c-.511-1.908-2.433-3.05-4.293-2.552Z" fill="#470137"/><path d="m16.093 7.913-1.383 4.963 3.927 3.824c.026.027.04.063.041.1 0 .017-.008.023-.021.027l-.016.004-.019.005a.212.212 0 0 0-.033.012l-1.952.523-.039.01c-.106.025-.186.03-.253-.037l-.834-.936c-.25-.277-.502-.551-.76-.822l-.112-.119c-.306-.32-.61-.642-.909-.968l-.013.004c-.083.424-.171.847-.266 1.268l-.281 1.264c-.092.419-.19.836-.291 1.253-.013.082-.062.112-.136.134l-.03.009-1.864.5-.008.002-.026.01c-.015.004-.025.003-.034-.019a.148.148 0 0 1-.006-.103l1.441-5.128L8.47 9.941c-.037-.03-.05-.06-.038-.087a.103.103 0 0 1 .072-.057l1.919-.514a.288.288 0 0 1 .128-.012.26.26 0 0 1 .102.055c.263.328.544.652.844.97.297.317.597.63.9.94.3.306.586.623.86.952l.014-.004c.078-.422.162-.844.252-1.264.089-.412.182-.829.278-1.249.096-.414.186-.83.271-1.246a.224.224 0 0 1 .03-.106.2.2 0 0 1 .104-.05l1.782-.478a.079.079 0 0 1 .05-.009.084.084 0 0 1 .06.122l-.004.009Zm6.448 8.069-.094.026c-.623.177-1.28.21-1.92.096a3.019 3.019 0 0 1-1.59-.839c-.437-.43-.762-1.027-.974-1.788l-.017-.063a3.85 3.85 0 0 1-.027-1.952c.16-.634.488-1.209.948-1.662l.04-.039c.5-.492 1.167-.85 2.002-1.074l.036-.01.042-.01.048-.01.052-.01.09-.018.1-.018.075-.013-.737-2.75c-.018-.065 0-.105.055-.12l1.715-.459a.073.073 0 0 1 .067.005.077.077 0 0 1 .037.057l2.21 8.248c.037.139.082.287.136.444l.122.355.07.206a.152.152 0 0 1-.045.161 6.862 6.862 0 0 1-1.262.787c-.38.183-.774.333-1.179.45Zm.273-1.927-1.021-3.81c-.08-.001-.158.005-.236.018a2.73 2.73 0 0 0-.283.06c-.33.086-.637.25-.892.48a1.94 1.94 0 0 0-.543.833c-.107.317-.106.694.005 1.13l.012.047c.075.306.204.596.382.855.144.208.33.383.546.512.204.117.432.184.665.196.246.014.493-.011.73-.076.127-.034.244-.07.35-.11.085-.03.168-.067.246-.112l.039-.023Z" fill="#FF61F6"/></g><defs><filter id="filter0_d_23_996" x=".8" y=".786" width="32.12" height="32.149" filterUnits="userSpaceOnUse" color-interpolation-filters="sRGB"><feFlood flood-opacity="0" result="BackgroundImageFix"/><feColorMatrix in="SourceAlpha" values="0 0 0 0 0 0 0 0 0 0 0 0 0 0 0 0 0 0 127 0" result="hardAlpha"/><feOffset dy="4"/><feGaussianBlur stdDeviation="2"/><feComposite in2="hardAlpha" operator="out"/><feColorMatrix values="0 0 0 0 0 0 0 0 0 0 0 0 0 0 0 0 0 0 0.25 0"/><feBlend in2="BackgroundImageFix" result="effect1_dropShadow_23_996"/><feBlend in="SourceGraphic" in2="effect1_dropShadow_23_996" result="shape"/></filter></defs></svg>