<svg width="29" height="28" fill="none" xmlns="http://www.w3.org/2000/svg"><g opacity=".95" filter="url('#filter0_d_12_150')"><path d="M21.585 0H8.225c-1.833 0-3.32 1.525-3.32 3.405v13.19c0 1.88 1.487 3.405 3.32 3.405h13.36c1.834 0 3.32-1.525 3.32-3.405V3.405c0-1.88-1.486-3.405-3.32-3.405Z" fill="#49021F"/><path d="M12.168 5.232v8.766c0 .092-.04.137-.12.137h-1.624c-.071 0-.107-.046-.107-.137V5.232c0-.073.04-.11.12-.11h1.624a.093.093 0 0 1 .076.024.098.098 0 0 1 .032.075v.011Zm4.89 9.04-.086.001a4.069 4.069 0 0 1-1.792-.385 2.875 2.875 0 0 1-1.254-1.163c-.297-.506-.449-1.136-.456-1.89v-.057a3.666 3.666 0 0 1 .456-1.803 3.391 3.391 0 0 1 1.285-1.297l.043-.024c.582-.33 1.284-.495 2.107-.495h.056l.043.002.049.003.053.003.06.005.132.011.036.003v-2.71c0-.065.027-.097.08-.097h1.691a.07.07 0 0 1 .06.02.074.074 0 0 1 .02.063v8.132c.001.17.008.34.02.51l.013.177.012.165.01.153a.146.146 0 0 1-.02.081.14.14 0 0 1-.061.056c-.436.187-.89.325-1.355.413a7.1 7.1 0 0 1-1.202.123Zm.732-1.705V8.81a1.3 1.3 0 0 0-.221-.041 2.606 2.606 0 0 0-.275-.014 2.029 2.029 0 0 0-.94.22 1.849 1.849 0 0 0-.704.633c-.183.275-.275.638-.275 1.087-.007.3.041.599.14.88.082.228.21.435.377.606.159.158.352.276.563.344.223.075.457.112.691.11.125 0 .241-.004.349-.013.085-.007.17-.021.254-.044l.041-.011Z" fill="#F36"/></g><defs><filter id="filter0_d_12_150" x=".905" y="0" width="28" height="28" filterUnits="userSpaceOnUse" color-interpolation-filters="sRGB"><feFlood flood-opacity="0" result="BackgroundImageFix"/><feColorMatrix in="SourceAlpha" values="0 0 0 0 0 0 0 0 0 0 0 0 0 0 0 0 0 0 127 0" result="hardAlpha"/><feOffset dy="4"/><feGaussianBlur stdDeviation="2"/><feComposite in2="hardAlpha" operator="out"/><feColorMatrix values="0 0 0 0 0 0 0 0 0 0 0 0 0 0 0 0 0 0 0.25 0"/><feBlend in2="BackgroundImageFix" result="effect1_dropShadow_12_150"/><feBlend in="SourceGraphic" in2="effect1_dropShadow_12_150" result="shape"/></filter></defs></svg>